<svg width="2549" height="660" viewBox="0 0 2549 660" fill="none" xmlns="http://www.w3.org/2000/svg">
<path d="M406.851 295.413C422.472 311.034 422.472 336.36 406.851 351.981L160.171 598.661C152.694 606.138 142.561 610.35 131.988 610.376L89.6175 610.483C67.4476 610.539 49.4613 592.552 49.5171 570.382L49.6237 528.012C49.6503 517.439 53.8625 507.306 61.3393 499.829L308.019 253.149C323.64 237.528 348.966 237.528 364.587 253.149L406.851 295.413Z" fill="url(#paint0_linear_107_2)"/>
<path d="M40.7391 354.979C25.1181 339.358 25.1181 314.031 40.7391 298.41L279.222 59.927C286.703 52.4462 296.843 48.2336 307.422 48.2114L347.024 48.1279C369.181 48.0812 387.155 66.0549 387.108 88.2121L387.024 127.814C387.002 138.393 382.79 148.533 375.309 156.014L136.826 394.497C121.205 410.118 95.8782 410.118 80.2572 394.497L40.7391 354.979Z" fill="url(#paint1_linear_107_2)"/>
<path d="M760.8 192.001V474.001H682.4V360.801H586.8V474.001H508.4V192.001H586.8V298.001H682.4V192.001H760.8ZM1062.07 192.001L962.866 384.401V474.001H884.066V384.401L784.866 192.001H874.466L924.066 300.801L973.666 192.001H1062.07ZM1308.93 286.001C1308.93 303.068 1304.93 318.668 1296.93 332.801C1289.2 346.668 1277.33 357.868 1261.33 366.401C1245.6 374.668 1226.27 378.801 1203.33 378.801H1164.53V474.001H1086.13V192.001H1203.33C1226 192.001 1245.2 196.001 1260.93 204.001C1276.93 212.001 1288.93 223.068 1296.93 237.201C1304.93 251.334 1308.93 267.601 1308.93 286.001ZM1195.73 316.401C1217.87 316.401 1228.93 306.268 1228.93 286.001C1228.93 265.468 1217.87 255.201 1195.73 255.201H1164.53V316.401H1195.73ZM1418.83 254.801V300.801H1508.83V360.401H1418.83V411.201H1520.83V474.001H1340.43V192.001H1520.83V254.801H1418.83ZM1637.97 414.001H1725.57V474.001H1559.57V192.001H1637.97V414.001ZM1934.46 428.001H1834.46L1819.26 474.001H1736.86L1839.66 192.001H1930.06L2032.46 474.001H1949.66L1934.46 428.001ZM1914.86 368.001L1884.46 276.801L1854.46 368.001H1914.86ZM2238.01 329.201C2254.54 332.934 2267.61 341.201 2277.21 354.001C2287.08 366.534 2292.01 380.934 2292.01 397.201C2292.01 421.201 2283.74 440.001 2267.21 453.601C2250.68 467.201 2227.48 474.001 2197.61 474.001H2058.01V192.001H2193.21C2222.01 192.001 2244.54 198.401 2260.81 211.201C2277.34 224.001 2285.61 242.001 2285.61 265.201C2285.61 281.734 2281.21 295.601 2272.41 306.801C2263.88 317.734 2252.41 325.201 2238.01 329.201ZM2136.41 304.001H2176.01C2195.74 304.001 2205.61 295.868 2205.61 279.601C2205.61 262.801 2195.74 254.401 2176.01 254.401H2136.41V304.001ZM2182.01 410.801C2201.74 410.801 2211.61 402.534 2211.61 386.001C2211.61 377.468 2208.94 370.934 2203.61 366.401C2198.54 361.868 2191.21 359.601 2181.61 359.601H2136.41V410.801H2182.01Z" fill="black"/>
<defs>
<linearGradient id="paint0_linear_107_2" x1="-1.91062" y1="918.002" x2="34.7376" y2="209.271" gradientUnits="userSpaceOnUse">
<stop stop-color="white"/>
<stop offset="1" stop-color="#00FF85"/>
</linearGradient>
<linearGradient id="paint1_linear_107_2" x1="622.605" y1="-507.064" x2="360.234" y2="489.074" gradientUnits="userSpaceOnUse">
<stop offset="0.0001" stop-color="#3BE160"/>
<stop offset="1" stop-color="#D7FF35"/>
</linearGradient>
</defs>
</svg>
